PathFileType	4	(X/Y/Z)	OpenSim_Sub02_EMGStiffKnee_Magnet.trc
DataRate	CameraRate	NumFrames	NumMarkers	Units	OrigDataRate	OrigDataStartFrame	OrigNumFrames
100	100	23	8	m	100	4932	7890
Frame#	Time	torso_imu_offset_imu	pelvis_imu_offset_imu	tibia_r_imu_offset_imu	femur_r_imu_offset_imu	tibia_l_imu_offset_imu	femur_l_imu_offset_imu	toes_r_imu_offset_imu	toes_l_imu_offset_imu
				X1	Y1	Z1	X2	Y2	Z2	X3	Y3	Z3	X4	Y4	Z4	X5	Y5	Z5	X6	Y6	Z6	X7	Y7	Z7	X8		Y8	Z8	

4932	49.31000000	-0.93793897	-0.11439940	0.10749324	-0.58443544	0.17090377	-0.69555884	-0.66198319	-0.39330970	-0.25004452	-0.84388709	-0.12195786	-0.00160201	-0.44388505	0.72208472	-0.05506207	-0.50195602	0.62766740	0.24876402	-0.54608329	-0.26467722	-0.51523002	-0.73746699	-0.14568463	-0.41889551
4933	49.32000000	-0.93819062	-0.11193986	0.10124323	-0.57937447	0.16803957	-0.69319896	-0.65671161	-0.40755510	-0.24395631	-0.84488900	-0.11620768	0.00756489	-0.43350494	0.73317760	-0.06514625	-0.50423402	0.63319041	0.24107589	-0.57646932	-0.23842600	-0.49124008	-0.74089912	-0.14502584	-0.40073225
4934	49.33000000	-0.93563755	-0.11096289	0.09275413	-0.57911758	0.17323427	-0.70062891	-0.65194164	-0.42711817	-0.23718120	-0.84213307	-0.11986181	0.01615928	-0.41666702	0.74234941	-0.07117663	-0.49866340	0.63875265	0.23813521	-0.59790125	-0.22676934	-0.46809608	-0.74832389	-0.14669993	-0.38608474
4935	49.34000000	-0.94155160	-0.11112157	0.09562590	-0.57436097	0.18169846	-0.69952597	-0.64342458	-0.44003534	-0.23717796	-0.83662902	-0.11901224	0.02796501	-0.40686458	0.74210154	-0.07165521	-0.49672632	0.63994554	0.22863033	-0.60879540	-0.25899256	-0.43331755	-0.75363611	-0.15282073	-0.37257250
4936	49.35000000	-0.94504967	-0.11001368	0.09111807	-0.56893208	0.18250866	-0.69752543	-0.63631319	-0.44861637	-0.23920199	-0.84189713	-0.11198276	0.03782810	-0.39023023	0.75099043	-0.07894108	-0.49971930	0.64258689	0.21428298	-0.61823873	-0.26042270	-0.41565820	-0.75845660	-0.15794114	-0.34911348
4937	49.36000000	-0.94017959	-0.10530343	0.08796904	-0.56709184	0.19116539	-0.70313407	-0.62764251	-0.45802625	-0.24003445	-0.84701021	-0.10994968	0.04348376	-0.37506682	0.75656590	-0.07766094	-0.49780332	0.64516685	0.21280789	-0.61684987	-0.26974621	-0.41410926	-0.76628596	-0.15458262	-0.32500853
4938	49.37000000	-0.94596879	-0.10434946	0.08370155	-0.57417589	0.20147031	-0.69910628	-0.61702094	-0.47432740	-0.22951941	-0.84325559	-0.10028929	0.05083965	-0.35973125	0.76867956	-0.07855452	-0.49695141	0.64353081	0.21277155	-0.61614412	-0.28648007	-0.40292581	-0.77634629	-0.14924513	-0.29651923
4939	49.38000000	-0.94295672	-0.10712393	0.07884109	-0.56942212	0.19784697	-0.69949802	-0.60977690	-0.49376698	-0.21221837	-0.84467113	-0.08939331	0.05679436	-0.33803547	0.77548671	-0.08758227	-0.50221865	0.63407894	0.20908385	-0.61687100	-0.29065170	-0.39985275	-0.78821598	-0.14836809	-0.26368145
4940	49.39000000	-0.94738244	-0.11105515	0.08132104	-0.57101864	0.19630056	-0.69976103	-0.60440204	-0.50893696	-0.19257242	-0.84762553	-0.08589024	0.06301003	-0.31755502	0.78249849	-0.08946228	-0.51355769	0.63348389	0.21015976	-0.61493275	-0.29313977	-0.39892901	-0.79826427	-0.13823430	-0.22868123
4941	49.40000000	-0.94474528	-0.10890078	0.08095581	-0.57258714	0.19572090	-0.69974347	-0.59521294	-0.52171803	-0.17756124	-0.84308431	-0.08877458	0.06831853	-0.29858582	0.78898453	-0.09561419	-0.51677730	0.62921813	0.20906120	-0.61526114	-0.29771184	-0.38915702	-0.80952602	-0.12804089	-0.17802358
4942	49.41000000	-0.94156825	-0.11216664	0.07573218	-0.57263586	0.18524295	-0.70338981	-0.58995582	-0.52504611	-0.16609436	-0.84212210	-0.09513755	0.08040720	-0.27835986	0.79460252	-0.10005075	-0.52609087	0.62256609	0.20756131	-0.61480401	-0.30122281	-0.38709538	-0.82150611	-0.12405200	-0.12632022
4943	49.42000000	-0.94290543	-0.10877481	0.07245915	-0.57397624	0.18437607	-0.70768252	-0.58730748	-0.53630084	-0.16239438	-0.84016906	-0.10838224	0.08872831	-0.26104903	0.79635084	-0.11098283	-0.53408961	0.62070974	0.20156470	-0.61565622	-0.30177834	-0.38740081	-0.82618946	-0.10811962	-0.07327299
4944	49.43000000	-0.94539137	-0.10819144	0.07516652	-0.57050366	0.18225057	-0.71246208	-0.58446802	-0.54848544	-0.16149213	-0.83167660	-0.12488136	0.09563662	-0.24086684	0.80813831	-0.12349722	-0.54049317	0.61798909	0.19729536	-0.61824541	-0.30339458	-0.38272920	-0.82950927	-0.09001752	-0.01793128
4945	49.44000000	-0.94667729	-0.10612837	0.07738651	-0.56886026	0.17513254	-0.71192617	-0.57570705	-0.55548980	-0.15902744	-0.83282859	-0.14588812	0.10005307	-0.22349302	0.80970161	-0.13847670	-0.55067506	0.60641996	0.20210113	-0.61901503	-0.30185587	-0.38338193	-0.82887250	-0.07665449	0.02715742
4946	49.45000000	-0.94662293	-0.10428927	0.07380315	-0.56621836	0.16994577	-0.71518689	-0.57350715	-0.55306286	-0.16203086	-0.82922273	-0.16891641	0.10817590	-0.20267982	0.80677522	-0.14792158	-0.56143993	0.59934394	0.19402020	-0.62113189	-0.29784444	-0.38282737	-0.82122858	-0.06612444	0.07734857
4947	49.46000000	-0.94590399	-0.10488934	0.07437999	-0.56314306	0.16524199	-0.72076237	-0.57144331	-0.55726825	-0.16951309	-0.81888779	-0.17938153	0.10833907	-0.19165789	0.81424536	-0.14833443	-0.57646898	0.58989291	0.18826010	-0.62869584	-0.30087168	-0.37995793	-0.81722697	-0.04585351	0.11916960
4948	49.47000000	-0.94397506	-0.09915057	0.07940970	-0.56021298	0.15825907	-0.72137524	-0.57274508	-0.55896411	-0.17476159	-0.81794581	-0.19587111	0.10940376	-0.17654588	0.81838622	-0.14990891	-0.58275673	0.57991432	0.18917567	-0.63175400	-0.29897038	-0.37874933	-0.81600835	-0.02983536	0.13899190
4949	49.48000000	-0.94637890	-0.09832679	0.08204901	-0.56396256	0.15356558	-0.72232455	-0.56987718	-0.55695086	-0.18657170	-0.81886517	-0.20082964	0.11476644	-0.16138202	0.82091270	-0.13923080	-0.59167927	0.57716895	0.18526664	-0.62832626	-0.29948598	-0.37582303	-0.81398764	-0.02437363	0.14917586
4950	49.49000000	-0.94906471	-0.09823620	0.08136293	-0.56341759	0.15243512	-0.72764440	-0.56255013	-0.55801728	-0.20218207	-0.81565164	-0.20149534	0.11235710	-0.14536797	0.82210089	-0.12497499	-0.60422259	0.56024703	0.18614410	-0.63393702	-0.29722736	-0.37525550	-0.81772075	-0.01807963	0.15496627
4951	49.50000000	-0.94438805	-0.09469437	0.08268650	-0.56768690	0.14809478	-0.72133015	-0.55371512	-0.56032706	-0.20412894	-0.81642487	-0.20668194	0.12075986	-0.13558165	0.82684391	-0.12924243	-0.61086990	0.55006195	0.18707763	-0.64117326	-0.29245154	-0.36856779	-0.82279081	-0.01119810	0.15150312
4952	49.51000000	-0.94421028	-0.09510045	0.08266793	-0.56839025	0.14314524	-0.72335132	-0.55103756	-0.56133337	-0.20561284	-0.81859964	-0.20927675	0.11901293	-0.12871020	0.82594738	-0.13519041	-0.62186720	0.54370894	0.18893218	-0.64160126	-0.29285685	-0.36243058	-0.82172841	-0.01023766	0.14537161
4953	49.52000000	-0.94650210	-0.09092851	0.08340677	-0.57011955	0.14115211	-0.72819967	-0.54928001	-0.56787278	-0.20928226	-0.81565514	-0.21941049	0.12635288	-0.13540270	0.81648720	-0.15076022	-0.62304546	0.53330376	0.19438840	-0.64542348	-0.29100569	-0.36085488	-0.82334363	-0.00519729	0.13138014
4954	49.53000000	-0.94549209	-0.09024459	0.08979385	-0.57105713	0.13492495	-0.73020072	-0.54450877	-0.57435363	-0.20622481	-0.81250323	-0.23228709	0.13064585	-0.14652288	0.81359669	-0.16849674	-0.63067195	0.52867808	0.20184406	-0.64825974	-0.29100321	-0.35373885	-0.83087012	0.00359767	0.10899910
